G04 ================== begin FILE IDENTIFICATION RECORD ==================*
G04 Layout Name:  prototype_board2_rev1.brd*
G04 Film Name:    BOTTOM*
G04 File Format:  Gerber RS274X*
G04 File Origin:  Cadence Allegro 17.2-S038*
G04 Origin Date:  Thu Feb 17 17:21:40 2022*
G04 *
G04 Layer:  ETCH/BOTTOM*
G04 Layer:  PIN/BOTTOM*
G04 Layer:  VIA CLASS/BOTTOM*
G04 *
G04 Offset:    (0.0000 0.0000)*
G04 Mirror:    No*
G04 Mode:      Positive*
G04 Rotation:  0*
G04 FullContactRelief:  No*
G04 UndefLineWidth:     0.0000*
G04 ================== end FILE IDENTIFICATION RECORD ====================*
%FSLAX25Y25*MOIN*%
%IR0*IPPOS*OFA0.00000B0.00000*MIA0B0*SFA1.00000B1.00000*%
%ADD26R,.027559X.07874*%
%ADD24R,.04528X.0315*%
%ADD17R,.0315X.04528*%
%ADD22R,.590551X.590551*%
%ADD21R,.055118X.009839*%
%ADD20R,.104331X.090551*%
%ADD12R,.05X.05*%
%ADD11C,.08*%
%ADD15O,.055X.1*%
%ADD10O,.1X.055*%
%ADD18R,.055X.1*%
%ADD19O,.145X.115*%
%ADD16R,.1X.055*%
%ADD13O,.11X.2*%
%ADD14R,.11X.2*%
%ADD23R,.032X.038*%
%ADD25R,.038X.032*%
%ADD27C,.011811*%
%ADD28C,.019685*%
%ADD29C,.01*%
%ADD30C,.03937*%
%ADD31C,.07874*%
%ADD32R,.157496X.629937*%
%ADD33C,.130016*%
G75*
%LPD*%
G75*
G36*
G01X-165354Y96456D02*
X291338D01*
Y-133858D01*
X277559D01*
Y-33465D01*
X51578D01*
G02X51295Y-32782I0J400D01*
G01X54017Y-30060D01*
X218387D01*
X238938Y-9509D01*
X246765D01*
G03X249522Y-10290I2756J4469D01*
G01X254022D01*
G03X256468Y-393I0J5251D01*
G02Y315I186J354D01*
G03X254022Y10211I-2446J4646D01*
G01X249522D01*
G03X246765Y9430I0J-5251D01*
G01X235796D01*
G02X235514Y10113I0J400D01*
G01X245538Y20137D01*
X257698D01*
X267265Y29704D01*
Y57841D01*
X259731Y65375D01*
X257949D01*
G03X256468Y66536I-3928J-3485D01*
G02Y67244I186J354D01*
G03X254022Y77141I-2446J4646D01*
G01X249522D01*
G03X245594Y75375I0J-5251D01*
G01X235803D01*
G03X223828Y71461I-5488J-3485D01*
G02X223146Y71152I-399J-26D01*
G01X200263Y94036D01*
X43831D01*
X27559Y77764D01*
X17582Y87741D01*
X-39978D01*
X-44233Y83485D01*
X-48232D01*
G03X-52159Y85251I-3928J-3485D01*
G01X-56659D01*
G03X-59106Y75354I0J-5251D01*
G02Y74646I-186J-354D01*
G03X-60587Y73485I2446J-4646D01*
G01X-72966D01*
X-72990Y73509D01*
X-73942D01*
G03X-76240Y75024I-2298J-985D01*
G01X-81240D01*
G03X-83741Y72524I0J-2501D01*
G01Y64509D01*
X-112931D01*
X-116071Y61368D01*
X-136554Y81851D01*
Y87757D01*
X-143267Y94469D01*
X-149246D01*
G03X-152002Y95251I-2756J-4469D01*
G01X-156502D01*
G03X-158948Y85354I0J-5251D01*
G02Y84646I-186J-354D01*
G03Y75354I2446J-4646D01*
G02Y74646I-186J-354D01*
G03Y65354I2446J-4646D01*
G02Y64646I-186J-354D01*
G03Y55354I2446J-4646D01*
G02Y54646I-186J-354D01*
G03Y45354I2446J-4646D01*
G02Y44646I-186J-354D01*
G03Y35354I2446J-4646D01*
G02Y34646I-186J-354D01*
G03Y25354I2446J-4646D01*
G02Y24646I-186J-354D01*
G03Y15354I2446J-4646D01*
G02Y14646I-186J-354D01*
G03Y5354I2446J-4646D01*
G02Y4646I-186J-354D01*
G03Y-4646I2446J-4646D01*
G02Y-5354I-186J-354D01*
G03Y-14646I2446J-4646D01*
G02Y-15354I-186J-354D01*
G03Y-24646I2446J-4646D01*
G02Y-25354I-186J-354D01*
G03X-156502Y-35251I2446J-4646D01*
G01X-152002D01*
G03X-149556Y-25354I0J5251D01*
G02Y-24646I186J354D01*
G03Y-15354I-2446J4646D01*
G02Y-14646I186J354D01*
G03Y-5354I-2446J4646D01*
G02Y-4646I186J354D01*
G03Y4646I-2446J4646D01*
G02Y5354I186J354D01*
G03Y14646I-2446J4646D01*
G02Y15354I186J354D01*
G03Y24646I-2446J4646D01*
G02Y25354I186J354D01*
G03Y34646I-2446J4646D01*
G02Y35354I186J354D01*
G03Y44646I-2446J4646D01*
G02Y45354I186J354D01*
G03Y54646I-2446J4646D01*
G02Y55354I186J354D01*
G03Y64646I-2446J4646D01*
G02Y65354I186J354D01*
G03Y74646I-2446J4646D01*
G02Y75354I186J354D01*
G03X-149246Y75531I-2446J4647D01*
G01X-142875D01*
X-121237Y53893D01*
Y-47143D01*
G03X-112298Y-45938I5095J-4038D01*
G01Y55284D01*
X-110044Y57539D01*
X-83539D01*
G03X-81240Y56023I2298J985D01*
G01X-76240D01*
G03X-73739Y58524I0J2501D01*
G01Y66515D01*
X-60587D01*
G03X-59106Y65354I3928J3485D01*
G02Y64646I-186J-354D01*
G03Y55354I2446J-4646D01*
G02Y54646I-186J-354D01*
G03Y45354I2446J-4646D01*
G02Y44646I-186J-354D01*
G03X-56659Y34749I2446J-4646D01*
G01X-52159D01*
G03X-49713Y44646I0J5251D01*
G02Y45354I186J354D01*
G03Y54646I-2446J4646D01*
G02Y55354I186J354D01*
G03X-48232Y56515I-2446J4646D01*
G01X-40896D01*
G03X-29945Y56554I5463J3524D01*
G01X-28505D01*
X-18544Y66515D01*
X12808D01*
X15806Y63517D01*
Y44882D01*
G03X18372Y41520I3485J0D01*
G01X18423Y41506D01*
X28088Y31841D01*
X28600D01*
G02X28883Y31159I0J-400D01*
G01X16848Y19124D01*
X16797Y19109D01*
G03X14231Y15748I919J-3361D01*
G01Y-2420D01*
X-15879D01*
X-28011Y9711D01*
Y10259D01*
X-27921Y10319D01*
G03X-32970Y22080I-3575J5429D01*
G02X-33343Y22752I-90J390D01*
G01X-32913Y23182D01*
X-32807Y23160D01*
G03X-37863Y28216I1311J6367D01*
G01X-37841Y28111D01*
X-42467Y23485D01*
X-48232D01*
G03X-52159Y25251I-3928J-3485D01*
G01X-56659D01*
G03X-59106Y15354I0J-5251D01*
G02Y14646I-186J-354D01*
G03Y5354I2446J-4646D01*
G02Y4646I-186J-354D01*
G03Y-4646I2446J-4646D01*
G02Y-5354I-186J-354D01*
G03Y-14646I2446J-4646D01*
G02Y-15354I-186J-354D01*
G03Y-24646I2446J-4646D01*
G02Y-25354I-186J-354D01*
G03Y-34646I2446J-4646D01*
G02Y-35354I-186J-354D01*
G03Y-44646I2446J-4646D01*
G02Y-45354I-186J-354D01*
G03Y-54646I2446J-4646D01*
G02Y-55354I-186J-354D01*
G03Y-64646I2446J-4646D01*
G02Y-65354I-186J-354D01*
G03Y-74646I2446J-4646D01*
G02Y-75354I-186J-354D01*
G03Y-84646I2446J-4646D01*
G02Y-85354I-186J-354D01*
G03X-56659Y-95251I2446J-4646D01*
G01X-52159D01*
G03X-49713Y-85354I0J5251D01*
G02Y-84646I186J354D01*
G03Y-75354I-2446J4646D01*
G02Y-74646I186J354D01*
G03Y-65354I-2446J4646D01*
G02Y-64646I186J354D01*
G03Y-55354I-2446J4646D01*
G02Y-54646I186J354D01*
G03Y-45354I-2446J4646D01*
G02Y-44646I186J354D01*
G03Y-35354I-2446J4646D01*
G02Y-34646I186J354D01*
G03Y-25354I-2446J4646D01*
G02Y-24646I186J354D01*
G03Y-15354I-2446J4646D01*
G02Y-14646I186J354D01*
G03Y-5354I-2446J4646D01*
G02Y-4646I186J354D01*
G03X-48232Y-3485I-2446J4646D01*
G01X-41303D01*
X-36165Y-8622D01*
G02Y-9187I-283J-283D01*
G03X-34895Y-19362I4602J-4592D01*
G02X-34891Y-20046I-205J-344D01*
G03X-34050Y-31569I3395J-5544D01*
G02X-33936Y-32230I-157J-368D01*
G03X-24807Y-41477I4409J-4778D01*
G01X4213D01*
X13662Y-32028D01*
X24686D01*
X34528Y-22186D01*
X48284D01*
G02X48567Y-22869I0J-400D01*
G01X39822Y-31613D01*
Y-53563D01*
X37094Y-56290D01*
G02X36753Y-56149I-142J141D01*
G01Y-55771D01*
X36770Y-55732D01*
G03X37146Y-53937I-4092J1796D01*
G01Y-49209D01*
G03X28208I-4469J4721D01*
G01Y-53937D01*
G03X28585Y-55732I4469J0D01*
G01X28602Y-55771D01*
Y-56201D01*
G03X31102Y-58702I2501J0D01*
G01X33718D01*
G02X34000Y-59384I0J-400D01*
G01X30301Y-63083D01*
X30259Y-63099D01*
G03X28748Y-64609I844J-2354D01*
G01X28733Y-64652D01*
X28208Y-65177D01*
Y-66555D01*
X25787Y-68975D01*
X23148Y-66336D01*
X23133Y-66292D01*
G03X22990Y-65921I-4236J-1426D01*
G01X22973Y-65883D01*
Y-65453D01*
G03X20472Y-62952I-2501J0D01*
G01X17323D01*
G03X14822Y-65453I0J-2501D01*
G01Y-65883D01*
X14805Y-65921D01*
G03X14428Y-67717I4092J-1796D01*
G01Y-68406D01*
G03X14840Y-70279I4469J0D01*
G03X16479Y-72335I2483J298D01*
G01X16522Y-72350D01*
X21121Y-76950D01*
Y-89041D01*
X20591D01*
G03X18090Y-91541I0J-2501D01*
G01Y-97041D01*
G03X18125Y-97460I2501J1D01*
G01X18143Y-97562D01*
X17928Y-97777D01*
X2296Y-82145D01*
X-458D01*
Y-81614D01*
G03X-2959Y-79113I-2501J0D01*
G01X-8459D01*
G03X-10877Y-80977I0J-2501D01*
G02X-11578Y-81122I-387J102D01*
G03X-20774Y-82982I-4130J-3242D01*
G01X-20815Y-83129D01*
X-25066D01*
X-49475Y-107539D01*
X-63410D01*
G03Y-114509I-5488J-3485D01*
G01X-46588D01*
X-22178Y-90099D01*
X-20815D01*
X-20774Y-90246D01*
G03X-11578Y-92106I5065J1382D01*
G02X-10877Y-92251I315J-247D01*
G03X-8459Y-94115I2418J637D01*
G01X-2959D01*
G03X-662Y-92603I0J2501D01*
G02X-11Y-92478I367J-158D01*
G01X16271Y-108761D01*
X20584D01*
G03X20894Y-108937I2755J4470D01*
G02Y-109645I-186J-354D01*
G03X20584Y-109822I2446J-4647D01*
G01X11812D01*
X9725Y-107735D01*
X6350D01*
X6346Y-107540D01*
G03X-9654Y-107705I-7999J-165D01*
G01Y-116705D01*
G03X6269Y-117825I8001J0D01*
G02X6947Y-117598I396J-56D01*
G01X8109Y-118761D01*
X20584D01*
G03X23341Y-119542I2756J4469D01*
G01X27841D01*
G03X30287Y-109645I0J5251D01*
G02Y-108937I186J354D01*
G03X31083Y-100161I-2446J4646D01*
G02X31228Y-99459I247J315D01*
G03X33091Y-97041I-637J2418D01*
G01Y-91541D01*
G03X30591Y-89041I-2501J0D01*
G01X30060D01*
Y-77344D01*
X35053Y-72350D01*
X35096Y-72335D01*
G03X36606Y-70824I-844J2354D01*
G01X36622Y-70782D01*
X37146Y-70257D01*
Y-68879D01*
X42321Y-63705D01*
G02X43004Y-63987I283J-283D01*
G01Y-133858D01*
X-165354D01*
Y96456D01*
G37*
G36*
G01X33013Y-13123D02*
Y-8822D01*
G02X33695Y-8540I400J0D01*
G01X36046Y-10890D01*
X36061Y-10935D01*
G03X37161Y-12538I3309J1093D01*
G02X36907Y-13247I-254J-309D01*
G01X33137D01*
X33013Y-13123D01*
G37*
G36*
G01X46719Y87066D02*
X197375D01*
X232162Y52280D01*
G02X231789Y51607I-283J-283D01*
G03X228928Y38924I-1474J-6332D01*
G02X228951Y38148I-85J-391D01*
G03X236196Y28405I1758J-6259D01*
G01X245594D01*
G03X246207Y27817I3928J3485D01*
G02X245955Y27107I-252J-310D01*
G01X242651D01*
X213123Y-2420D01*
X182653D01*
G03Y-9391I-5488J-3485D01*
G01X213638D01*
G02X213921Y-10073I0J-400D01*
G01X210747Y-13247D01*
X163918D01*
Y7851D01*
X145552Y26217D01*
X134018D01*
X132323Y27912D01*
Y32118D01*
G03X132717Y33465I-2107J1347D01*
G01Y41339D01*
G03X132715Y41422I-2501J-6D01*
G01X132713Y41508D01*
X132915Y41711D01*
X136773Y37854D01*
X138213D01*
G03X139109Y45940I5488J3485D01*
G02X138543I-283J283D01*
G01X135723Y48761D01*
X124139D01*
X119645Y44267D01*
Y42685D01*
G03X119252Y41339I2107J-1347D01*
G01Y40887D01*
X117585D01*
X115617Y42855D01*
X113131D01*
G03X111517Y43446I-1614J-1910D01*
G01X106988D01*
G03X104487Y40945I0J-2501D01*
G01Y37795D01*
G03X106988Y35294I2501J0D01*
G01X111517D01*
G03X112772Y35632I0J2501D01*
G01X112905Y35710D01*
X114698Y33917D01*
X119252D01*
Y33465D01*
G03X119645Y32118I2501J0D01*
G01Y27359D01*
X118562Y26276D01*
Y25282D01*
G03X117646Y23348I1585J-1934D01*
G01Y20148D01*
G03X117686Y19704I2501J0D01*
G02X117293Y19233I-394J-71D01*
G01X117219D01*
X114266Y16280D01*
X112025D01*
G03X109843Y17560I-2183J-1221D01*
G01X106693D01*
G03X104510Y16280I0J-2501D01*
G01X104073D01*
G02X103931Y16621I0J200D01*
G01X109120Y21810D01*
X109843D01*
G03X112343Y24311I0J2501D01*
G01Y28839D01*
G03X109843Y31340I-2501J0D01*
G01X106693D01*
G03X104192Y28839I0J-2501D01*
G01Y26739D01*
X100623Y23170D01*
X91076D01*
X81161Y13255D01*
Y-4462D01*
X79265Y-6357D01*
X74384D01*
G02X74107Y-5669I0J400D01*
G03X74793Y-4494I-1735J1801D01*
G02X75039Y-4352I194J-50D01*
G03X75172Y-4369I132J483D01*
G01X78372D01*
G03X78872Y-3869I0J501D01*
G01Y-69D01*
G03X78372Y432I-501J0D01*
G01X75172D01*
G03X75039Y415I0J-501D01*
G02X74793Y557I-53J193D01*
G03X72372Y2432I-2421J-626D01*
G01X69172D01*
G03X66926Y1032I0J-2501D01*
G01X66204D01*
X63046Y4191D01*
G02X63328Y4873I283J283D01*
G01X66926D01*
G03X69172Y3473I2246J1101D01*
G01X72372D01*
G03X74793Y5348I0J2501D01*
G02X75039Y5491I194J-50D01*
G03X75172Y5473I132J483D01*
G01X78372D01*
G03X78872Y5974I0J501D01*
G01Y9774D01*
G03X78372Y10275I-501J0D01*
G01X75172D01*
G03X75039Y10257I0J-501D01*
G02X74793Y10400I-53J193D01*
G03X72372Y12275I-2421J-626D01*
G01X69172D01*
G03X66926Y10875I0J-2501D01*
G01X65297D01*
G02X65014Y11557I0J400D01*
G01X67450Y13994D01*
X67590Y13880D01*
G03X69172Y13316I1582J1937D01*
G01X72372D01*
G03X74793Y15191I0J2501D01*
G02X75039Y15333I194J-50D01*
G03X75172Y15316I132J483D01*
G01X78372D01*
G03X78872Y15817I0J501D01*
G01Y19617D01*
G03X78372Y20117I-501J0D01*
G01X75172D01*
G03X75039Y20100I0J-501D01*
G02X74793Y20243I-53J193D01*
G03X72372Y22117I-2421J-626D01*
G01X70539D01*
G02X70257Y22800I0J400D01*
G01X70615Y23158D01*
X72372D01*
G03X74793Y25033I0J2501D01*
G02X75039Y25176I194J-50D01*
G03X75172Y25158I132J483D01*
G01X78372D01*
G03X78872Y25659I0J501D01*
G01Y29586D01*
X82249D01*
G03X86322Y30213I1609J3091D01*
G01X91819Y35710D01*
X91952Y35632D01*
G03X93208Y35294I1255J2163D01*
G01X97736D01*
G03X100237Y37795I0J2501D01*
G01Y40945D01*
G03X97736Y43446I-2501J0D01*
G01X93208D01*
G03X91594Y42855I0J-2501D01*
G01X89107D01*
X82021Y35769D01*
X78872D01*
Y39302D01*
G03X78372Y39802I-501J0D01*
G01X75172D01*
G03X75039Y39785I0J-501D01*
G02X74793Y39928I-53J193D01*
G03X72372Y41802I-2421J-626D01*
G01X70839D01*
G02X70557Y42485I0J400D01*
G01X70915Y42843D01*
X72372D01*
G03X74793Y44718I0J2501D01*
G02X75039Y44861I194J-50D01*
G03X75172Y44843I132J483D01*
G01X78372D01*
G03X78872Y45344I0J501D01*
G01Y49144D01*
G03X78372Y49645I-501J0D01*
G01X75172D01*
G03X75039Y49627I0J-501D01*
G02X74793Y49770I-53J193D01*
G03X73163Y51516I-2421J-626D01*
G02X73007Y52178I127J379D01*
G01X73772Y52944D01*
Y53113D01*
X73854Y53172D01*
G03X74793Y54561I-1482J2014D01*
G02X75039Y54704I194J-50D01*
G03X75172Y54686I132J483D01*
G01X78372D01*
G03X78872Y55187I0J501D01*
G01Y58987D01*
G03X78372Y59487I-501J0D01*
G01X75172D01*
G03X75039Y59470I0J-501D01*
G02X74793Y59613I-53J193D01*
G03X73163Y61359I-2421J-626D01*
G02X73007Y62021I127J379D01*
G01X73772Y62786D01*
Y62955D01*
X73854Y63015D01*
G03X74793Y64403I-1482J2014D01*
G02X75039Y64546I194J-50D01*
G03X75172Y64528I132J483D01*
G01X78372D01*
G03X78872Y65029I0J501D01*
G01Y68829D01*
G03X78372Y69330I-501J0D01*
G01X75172D01*
G03X75039Y69312I0J-501D01*
G02X74793Y69455I-53J193D01*
G03X74783Y69491I-2421J-627D01*
G01X74776Y69517D01*
Y69743D01*
X160137D01*
X164231Y65649D01*
Y60837D01*
G03X171452Y50097I3091J-5719D01*
G02X172106Y49788I254J-309D01*
G01Y40650D01*
X164653Y33198D01*
Y30888D01*
G03X171408Y30539I3091J-5719D01*
G02X171351Y31152I225J331D01*
G01X178288Y38090D01*
Y66241D01*
X164666Y79863D01*
X63680D01*
X55964Y72147D01*
Y60767D01*
X52403Y57206D01*
X52275Y57268D01*
G03X51181Y57520I-1093J-2249D01*
G01X50434D01*
Y65630D01*
G03X47933Y68131I-2501J0D01*
G01X37500D01*
G03X34999Y65630I0J-2501D01*
G01Y56575D01*
G03X37500Y54074I2501J0D01*
G01X43162D01*
X43173Y53886D01*
G03X43218Y53543I2496J150D01*
G03X43169Y53051I2452J-492D01*
G01Y52067D01*
G03X43218Y51575I2501J0D01*
G03X43169Y51082I2452J-492D01*
G01Y50098D01*
G03X43218Y49606I2501J0D01*
G03X43169Y49114I2452J-492D01*
G01Y48130D01*
G03X43218Y47638I2501J0D01*
G03X43169Y47145I2452J-492D01*
G01Y46161D01*
G03X43218Y45669I2501J0D01*
G03X43169Y45177I2452J-492D01*
G01Y44194D01*
G03X43218Y43701I2501J1D01*
G03X43169Y43208I2451J-494D01*
G01Y42224D01*
G03X43169Y42186I2501J6D01*
G02X42769Y41780I-400J-6D01*
G01X36873D01*
X31044Y47609D01*
Y71391D01*
X46719Y87066D01*
G37*
G36*
G01X126448Y23348D02*
G03X126446Y23441I-2501J4D01*
G01X126443Y23528D01*
X126646Y23731D01*
X129457Y20920D01*
Y20148D01*
G03X131332Y17727I2501J0D01*
G02X131475Y17480I-50J-194D01*
G03X131457Y17348I483J-132D01*
G01Y14148D01*
G03X131958Y13647I501J0D01*
G01X135758D01*
G03X136259Y14148I0J501D01*
G01Y17279D01*
X141850D01*
X154980Y4149D01*
Y-13247D01*
X83198D01*
G02X82915Y-12565I0J400D01*
G01X88131Y-7349D01*
Y10367D01*
X89730Y11967D01*
G02X90413Y11683I283J-283D01*
G01Y10531D01*
G03X92913Y8030I2501J0D01*
G01X96063D01*
G03X98246Y9310I0J2501D01*
G01X104510D01*
G03X106693Y8030I2183J1221D01*
G01X109843D01*
G03X112025Y9310I0J2501D01*
G01X117154D01*
X119559Y11715D01*
X119663Y11694D01*
G03X120147Y11647I484J2454D01*
G01X123947D01*
G03X126448Y14148I0J2501D01*
G01Y17348D01*
G03X126019Y18748I-2501J0D01*
G03X126448Y20148I-2072J1400D01*
G01Y23348D01*
G37*
%LPC*%
G75*
G36*
G01X246271Y79140D02*
Y84640D01*
G02X246772Y85141I501J0D01*
G01X256772D01*
G02X257272Y84640I0J-501D01*
G01Y79140D01*
G02X256772Y78639I-501J0D01*
G01X246772D01*
G02X246271Y79140I0J501D01*
G37*
G36*
G01Y12211D02*
Y17711D01*
G02X246772Y18211I501J0D01*
G01X256772D01*
G02X257272Y17711I0J-501D01*
G01Y12211D01*
G02X256772Y11710I-501J0D01*
G01X246772D01*
G02X246271Y12211I0J501D01*
G37*
G36*
G01X-27654Y-122205D02*
Y-102205D01*
G02X-27154Y-101704I501J0D01*
G01X-16154D01*
G02X-15653Y-102205I0J-501D01*
G01Y-122205D01*
G02X-16154Y-122706I-501J0D01*
G01X-27154D01*
G02X-27654Y-122205I0J501D01*
G37*
G36*
G01X-52159Y86749D02*
X-56659D01*
G02Y93251I0J3251D01*
G01X-52159D01*
G02Y86749I0J-3251D01*
G37*
G36*
G01Y26749D02*
X-56659D01*
G02Y33251I0J3251D01*
G01X-52159D01*
G02Y26749I0J-3251D01*
G37*
G36*
G01X-152002Y-43251D02*
X-156502D01*
G02Y-36749I0J3251D01*
G01X-152002D01*
G02Y-43251I0J-3251D01*
G37*
G36*
G01X-53567Y-127501D02*
G02Y-120531I-5488J3485D01*
G01X-46826D01*
G02Y-127501I5488J-3485D01*
G01X-53567D01*
G37*
G36*
G01X-158948Y-55354D02*
G03Y-54646I-186J354D01*
G02X-156502Y-44749I2446J4646D01*
G01X-152002D01*
G02X-149556Y-54646I0J-5251D01*
G03Y-55354I186J-354D01*
G02Y-64646I-2446J-4646D01*
G03Y-65354I186J-354D01*
G02Y-74646I-2446J-4646D01*
G03Y-75354I186J-354D01*
G02Y-84646I-2446J-4646D01*
G03Y-85354I186J-354D01*
G02X-152002Y-95251I-2446J-4646D01*
G01X-156502D01*
G02X-158948Y-85354I0J5251D01*
G03Y-84646I-186J354D01*
G02Y-75354I2446J4646D01*
G03Y-74646I-186J354D01*
G02Y-65354I2446J4646D01*
G03Y-64646I-186J354D01*
G02Y-55354I2446J4646D01*
G37*
G36*
G01X14428Y-53937D02*
Y-49209D01*
G02X23367I4469J4721D01*
G01Y-53937D01*
G02X22990Y-55732I-4469J0D01*
G01X22973Y-55771D01*
Y-56201D01*
G02X20472Y-58702I-2501J0D01*
G01X17323D01*
G02X14822Y-56201I0J2501D01*
G01Y-55771D01*
X14805Y-55732D01*
G02X14428Y-53937I4092J1796D01*
G37*
G36*
G01X92413Y24311D02*
Y28839D01*
G02X92913Y29340I501J0D01*
G01X96063D01*
G02X96564Y28839I0J-501D01*
G01Y24311D01*
G02X96063Y23810I-501J0D01*
G01X92913D01*
G02X92413Y24311I0J501D01*
G37*
G54D32*
X-7874Y31496D03*
G54D33*
X-78740Y-124016D03*
%LPD*%
G75*
G54D10*
X-154252Y-90000D03*
Y-80000D03*
Y-70000D03*
Y-60000D03*
Y-50000D03*
Y-40000D03*
Y-30000D03*
Y-20000D03*
Y-10000D03*
Y0D03*
Y10000D03*
Y20000D03*
Y30000D03*
Y40000D03*
Y50000D03*
Y60000D03*
Y70000D03*
Y80000D03*
Y90000D03*
X-54409Y-70000D03*
Y-80000D03*
Y-90000D03*
Y-40000D03*
Y-50000D03*
Y-60000D03*
Y-10000D03*
Y-20000D03*
Y-30000D03*
Y20000D03*
Y10000D03*
Y0D03*
Y50000D03*
Y40000D03*
Y30000D03*
Y80000D03*
Y70000D03*
Y60000D03*
Y90000D03*
X25591Y-114291D03*
Y-104291D03*
X251772Y-5039D03*
Y4961D03*
Y31890D03*
Y41890D03*
Y51890D03*
Y61890D03*
Y71890D03*
G54D11*
X-139764Y-39370D03*
X-116142Y-51181D03*
X-78740Y-124016D03*
X-68898Y-111024D03*
Y29528D03*
X-59055Y-124016D03*
X-41339D03*
Y9843D03*
X-35433Y60039D03*
Y76772D03*
X-29528Y-55118D03*
Y-37008D03*
X-31564Y-13780D03*
X-31496Y-25591D03*
X-31496Y15748D03*
Y29528D03*
X18898Y-44488D03*
X7874Y-55118D03*
X32677Y-44488D03*
X143701Y-7874D03*
Y3937D03*
Y41339D03*
Y53150D03*
Y64961D03*
X167744Y25169D03*
X167323Y55118D03*
X177165Y-5906D03*
X185039Y23622D03*
Y57087D03*
X230315Y45276D03*
X230709Y31890D03*
X230315Y71890D03*
G54D20*
X42717Y2716D03*
Y61102D03*
G54D30*
G01X-154252Y80000D02*
X-141024D01*
G01X-154252Y90000D02*
X-145118D01*
X-141024Y85906D01*
Y80000D01*
G01D02*
X-116767Y55744D01*
G01D02*
Y-50556D01*
X-116142Y-51181D01*
G01X32677Y-17717D02*
X22835Y-27559D01*
X11811D01*
X2362Y-37008D01*
X-29528D01*
G01X25591Y-104291D02*
X18122D01*
X445Y-86614D01*
X-5709D01*
G01X25591Y-114291D02*
X9961D01*
X7874Y-112205D01*
X-1654D01*
G01X25591Y-75099D02*
X18898Y-68406D01*
Y-67717D01*
G01Y-53937D02*
Y-44488D01*
G01X25591Y-94291D02*
Y-75099D01*
G01D02*
X25984D01*
X32677Y-68406D01*
Y-67717D01*
G01X251772Y-5039D02*
X237087D01*
X216535Y-25591D01*
X52165D01*
X44291Y-33465D01*
Y-55414D01*
X32677Y-67028D01*
Y-67717D01*
G01Y-53937D02*
Y-44488D01*
G01Y-17717D02*
X159449D01*
G01X76772Y7874D02*
Y17717D01*
G01Y7874D02*
Y-1969D01*
G01Y27559D02*
Y17717D01*
G01X81824Y26575D02*
X94488D01*
G01X76772Y47244D02*
Y37402D01*
G01Y57087D02*
Y47244D01*
G01Y27559D02*
X80840D01*
G01D02*
X81824Y26575D01*
G01X76772Y66929D02*
Y57087D01*
G01X159449Y-17717D02*
Y6000D01*
X143701Y21748D01*
X133858D01*
G01X159449Y-17717D02*
X212598D01*
X235276Y4961D01*
X251772D01*
G01X281496Y-127953D02*
X281362Y-128087D01*
G54D12*
X-78740Y70024D03*
Y61024D03*
G54D21*
X48426Y25000D03*
Y23031D03*
Y21063D03*
Y19094D03*
Y17126D03*
Y15157D03*
Y13189D03*
Y11220D03*
Y9252D03*
Y54527D03*
Y52559D03*
Y50590D03*
Y48622D03*
Y46653D03*
Y44685D03*
Y42716D03*
Y40748D03*
Y38779D03*
Y36811D03*
Y34842D03*
Y32874D03*
Y30905D03*
Y28937D03*
Y26968D03*
G54D31*
G01X-21654Y-112205D02*
Y-116705D01*
X-8437Y-129921D01*
G01D02*
X102854D01*
G01D02*
X220270D01*
G01X102854Y-84646D02*
Y-129921D01*
G01X220177Y-84646D02*
Y-96878D01*
X220270Y-96971D01*
Y-129921D01*
G01X279528D02*
X220270D01*
G01X281362Y-128087D02*
X279528Y-129921D01*
G54D13*
X-1654Y-112205D03*
G54D22*
X102067Y-84646D03*
X220177D03*
G54D23*
X70772Y7874D03*
X76772D03*
X70772Y17717D03*
X76772D03*
X70772Y-1969D03*
X76772D03*
X70772Y27559D03*
X76772D03*
X70772Y57087D03*
X76772D03*
X70772Y47244D03*
X76772D03*
X70772Y37402D03*
X76772D03*
X70772Y66929D03*
X76772D03*
G54D14*
X-21654Y-112205D03*
G54D15*
X-15709Y-86614D03*
G54D24*
X109252Y39370D03*
X95472D03*
G54D25*
X122047Y21748D03*
Y15748D03*
X133858Y21748D03*
Y15748D03*
G54D16*
X25591Y-94291D03*
X251772Y14961D03*
Y81890D03*
G54D17*
X18898Y-67717D03*
Y-53937D03*
X32677Y-67717D03*
Y-53937D03*
X94488Y12795D03*
Y26575D03*
X108268D03*
Y12795D03*
G54D26*
X123130Y37402D03*
X128838D03*
G54D27*
G01X37811Y11220D02*
X36811D01*
X35433Y9843D01*
Y-5906D01*
X39370Y-9843D01*
G01X59055Y59615D02*
Y70867D01*
X64960Y76772D01*
X163386D01*
X175197Y64961D01*
Y39370D01*
X167744Y31917D01*
Y25169D01*
G01X167323Y55118D02*
Y66929D01*
X161417Y72835D01*
X66929D01*
X62992Y68898D01*
Y59055D01*
G01X83858Y32677D02*
X75590D01*
X70772Y27859D01*
Y27559D01*
G54D18*
X-5709Y-86614D03*
G54D28*
G01X-78740Y61024D02*
X-111487D01*
X-116767Y55744D01*
G01X-54409Y70000D02*
X-74410D01*
X-74433Y70024D01*
X-78740D01*
G01X-41339Y-124016D02*
X-59055D01*
G01X-68898Y-111024D02*
X-48031D01*
X-23622Y-86614D01*
X-15709D01*
G01X-31564Y-13780D02*
Y-8295D01*
X-39859Y0D01*
X-54409D01*
G01D02*
X-54410D01*
G01X-31496Y29528D02*
X-41024Y20000D01*
X-54409D01*
G01D02*
X-54410D01*
G01X21654Y15354D02*
Y-7874D01*
X19204Y-10324D01*
X-21172D01*
X-41339Y9843D01*
G01D02*
X-41496Y10000D01*
X-54409D01*
G01D02*
X-54410D01*
G01X-35433Y76772D02*
X-42205Y70000D01*
X-54409D01*
G01X27559Y72835D02*
X16138Y84256D01*
X-38534D01*
X-42790Y80000D01*
X-54409D01*
G01D02*
X-54410D01*
G01X-35433Y60039D02*
X-41902D01*
X-41941Y60000D01*
X-54409D01*
G01D02*
X-54410D01*
G01X17717Y15748D02*
Y-3937D01*
X15748Y-5906D01*
X-17323D01*
X-31496Y8268D01*
Y15748D01*
G01X-31496Y-25591D02*
X-27619Y-21713D01*
Y-21693D01*
X-23642Y-17717D01*
X18504D01*
X25591Y-10630D01*
Y14173D01*
G01X-35433Y76772D02*
X15748D01*
X23622Y68898D01*
Y46063D01*
G01X19291Y44882D02*
Y64960D01*
X14252Y70000D01*
X-19988D01*
X-29949Y60039D01*
X-35433D01*
G01X39370Y-9843D02*
X80709D01*
X84646Y-5906D01*
Y11811D01*
X92520Y19685D01*
X102067D01*
X108268Y25886D01*
Y26575D01*
G01X44000Y25261D02*
X41009D01*
X29528Y13780D01*
Y-14567D01*
X32677Y-17717D01*
G01X27559Y72835D02*
Y46850D01*
G01X251772Y51890D02*
X237480D01*
X198819Y90551D01*
X45275D01*
X27559Y72835D01*
G01X95472Y39370D02*
X90551D01*
X83858Y32677D01*
G01X108268Y12795D02*
X94488D01*
G01X108268D02*
X115710D01*
X118663Y15748D01*
X122047D01*
G01X123130Y37402D02*
X116142D01*
X114173Y39370D01*
X109252D01*
G01X123130Y37402D02*
Y25915D01*
X122047Y24832D01*
Y21748D01*
G01X128838Y37402D02*
Y26468D01*
X133558Y21748D01*
X133858D01*
G01X143701Y41339D02*
X138217D01*
X134280Y45276D01*
X125583D01*
X123130Y42823D01*
Y37402D01*
G01X177165Y-5906D02*
X214567D01*
X244094Y23622D01*
X256254D01*
X263780Y31148D01*
Y56398D01*
X258287Y61890D01*
X251772D01*
G01X230315Y45276D02*
X240157D01*
X243543Y41890D01*
X251772D01*
G01Y31890D02*
X230709D01*
G01X251772Y71890D02*
X230315D01*
G54D19*
X55118Y-84646D03*
X149016D03*
X173228D03*
X267126D03*
G54D29*
G01X-159953Y-40000D02*
X-154252D01*
G01Y-43451D02*
Y-40000D01*
G01D02*
Y-36549D01*
G01Y-40000D02*
X-148551D01*
G01X48426Y30905D02*
X37204D01*
X21654Y15354D01*
G01X-54409Y26549D02*
Y30000D01*
G01D02*
Y33451D01*
G01X-60110Y30000D02*
X-54409D01*
G01D02*
X-48709D01*
G01X-54409Y86549D02*
Y90000D01*
G01D02*
Y93451D01*
G01X-60110Y90000D02*
X-54409D01*
G01D02*
X-48709D01*
G01X-21654Y-112205D02*
Y-101504D01*
G01X-27854Y-112205D02*
X-21654D01*
G01D02*
X-15453D01*
G01X48426Y32874D02*
X34843D01*
X17717Y15748D01*
G01X25591Y14173D02*
X40355Y28937D01*
X48426D01*
G01X23622Y46063D02*
X32874Y36811D01*
X48426D01*
G01Y34842D02*
X29331D01*
X19291Y44882D01*
G01X48426Y11220D02*
X37811D01*
G01X36614Y-12992D02*
X32677Y-9055D01*
Y11039D01*
X44670Y23031D01*
X48426D01*
G01X126772Y-12992D02*
X36614D01*
G01X48426Y15157D02*
X58370D01*
X70772Y27559D01*
G01Y7874D02*
X61024D01*
X57678Y11220D01*
X48426D01*
G01X70772Y-1969D02*
X64961D01*
X53740Y9252D01*
X48426D01*
G01X70772Y17717D02*
X66929D01*
X62402Y13189D01*
X48426D01*
G01Y17126D02*
X56496D01*
X62992Y23622D01*
Y26722D01*
X70772Y34502D01*
Y37402D01*
G01X48426Y21063D02*
X54528D01*
X64961Y31496D01*
Y41433D01*
X68164Y44637D01*
X68464D01*
X70772Y46944D01*
Y47244D01*
G01X48426Y25000D02*
X44260D01*
X44000Y25261D01*
G01D02*
Y25262D01*
X45706Y26968D01*
X48426D01*
G01Y52559D02*
X52000D01*
X59055Y59615D01*
G01X70772Y66929D02*
Y64029D01*
X53396Y46653D01*
X48426D01*
G01X62992Y59055D02*
X54527Y50590D01*
X48426D01*
G01X27559Y46850D02*
X35630Y38779D01*
X48426D01*
G01X42520Y42520D02*
X44291Y40748D01*
X48426D01*
G01X70772Y57087D02*
Y54187D01*
X61024Y44439D01*
Y31496D01*
X56496Y26968D01*
X48426D01*
G01X76772Y-4569D02*
Y-1969D01*
G01D02*
X79072D01*
G01X76772Y66929D02*
Y69530D01*
G01Y66929D02*
X79072D01*
G01X102067Y-84646D02*
X102854D01*
G01X94488Y26575D02*
Y29540D01*
G01Y26575D02*
X96764D01*
G01X133858Y13447D02*
Y15748D01*
G01X131257D02*
X133858D01*
G01D02*
X136459D01*
G01X220768Y-84646D02*
X220177D01*
G01X251772Y11510D02*
Y14961D01*
G01D02*
Y18411D01*
G01X246071Y14961D02*
X251772D01*
G01D02*
X257472D01*
G01X251772Y78439D02*
Y81890D01*
G01D02*
Y85341D01*
G01X246071Y81890D02*
X251772D01*
G01D02*
X257472D01*
M02*
