M48
INCH
T01C.035
T02C.075
;LEADER: 12 
;HEADER: 
;CODE  : ASCII 
;FILE  : prototype_board2_rev1-1-2.drl for board C:/Users/Camer/Documents/GitHub/Prototype/allegro/#Taaaabf03172.tmp ... layers TOP and BOTTOM
;T01 Holesize 1. = 35.000000 Tolerance = +0.000000/-0.000000 PLATED MILS Quantity = 86
;T02 Holesize 2. = 75.000000 Tolerance = +0.000000/-0.000000 PLATED MILS Quantity = 4
%
G90
T01
X-0154252Y0090000
R12Y-0010000
X-0139764Y-0039370
X-0154252Y-0040000
X-0154252Y-0050000
R04Y-0010000
X-0116142Y-0051181
X-0078740Y-0124016
X-0059055Y-0124016
X-0041339Y-0124016
X-0068898Y-0111024
X-0054409Y-0090000
X-0054409Y-0080000
R08Y0010000
X-0041339Y0009843
X-0054409Y0010000
X-0054409Y0020000
X-0068898Y0029528
X-0054409Y0030000
R06Y0010000
X-0035433Y0076772
X-0035433Y0060039
X-0031496Y0029528
X-0031496Y0015748
X-0031564Y-0013780
X-0031496Y-0025591
X-0029528Y-0037008
X-0029528Y-0055118
X-0005709Y-0086614
X-0015709Y-0086614
X-0001654Y-0112205
X-0021654Y-0112205
X0025591Y-0114291
R02Y0010000
X0007874Y-0055118
X0018898Y-0044488
X0032677Y-0044488
X0143701Y-0007874
X0143701Y0003937
X0143701Y0041339
X0143701Y0053150
X0143701Y0064961
X0185039Y0057087
X0167323Y0055118
X0167744Y0025169
X0185039Y0023622
X0177165Y-0005906
X0230709Y0031890
X0230315Y0045276
X0230315Y0071890
X0251772Y0081890
R05Y-0010000
X0251772Y0014961
R02Y-0010000
T02
X0055118Y-0084646
X0149016Y-0084646
X0173228Y-0084646
X0267126Y-0084646
M30
